<svg xmlns="http://www.w3.org/2000/svg" width="512" height="512" viewBox="0 0 16 16">
  <g fill="none" fill-rule="evenodd" transform="translate(1.5)">
    <path fill="#4080B3" fill-rule="nonzero" d="M2.16666667,1.01985683 C1.56835819,1.01985683 1.08333333,1.47646229 1.08333333,2.03971366 L1.08333333,10.4918379 C1.08333333,10.7910319 1.22289101,11.0751343 1.46504754,11.2689069 L5.79838088,14.7364201 C6.20292844,15.0601372 6.79707156,15.0601372 7.20161912,14.7364201 L11.5349525,11.2689069 C11.777109,11.0751343 11.9166667,10.7910319 11.9166667,10.4918379 L11.9166667,3.27078976 C11.9166667,3.13554834 11.8595984,3.00584605 11.7580162,2.91021592 L9.90865049,1.16921141 C9.80706829,1.07358128 9.66929325,1.01985683 9.52563432,1.01985683 L2.16666667,1.01985683 Z M2.16666667,7.92587975e-16 L9.52563432,0 C9.95661112,4.98198156e-15 10.3699362,0.16117334 10.6746828,0.448063725 L12.5240485,2.18906824 C12.8287951,2.47595862 13,2.86506549 13,3.27078976 L13,10.4918379 C13,11.0902259 12.7208846,11.6584308 12.2365716,12.0459759 L7.90323824,15.5134891 C7.09414311,16.1609233 5.90585689,16.1609233 5.09676176,15.5134891 L0.763428423,12.0459759 C0.279115363,11.6584308 0,11.0902259 0,10.4918379 L9.62193288e-16,2.03971366 C1.32301577e-15,0.913210913 0.970049709,1.13226854e-15 2.16666667,7.92587975e-16 Z"/>
    <path fill="#D9E6F0" d="M2.16666667,1.01985683 C1.56835819,1.01985683 1.08333333,1.47646229 1.08333333,2.03971366 L1.08333333,10.4918379 C1.08333333,10.7910319 1.22289101,11.0751343 1.46504754,11.2689069 L5.79838088,14.7364201 C6.20292844,15.0601372 6.79707156,15.0601372 7.20161912,14.7364201 L11.5349525,11.2689069 C11.777109,11.0751343 11.9166667,10.7910319 11.9166667,10.4918379 L11.9166667,3.27078976 C11.9166667,3.13554834 11.8595984,3.00584605 11.7580162,2.91021592 L9.90865049,1.16921141 C9.80706829,1.07358128 9.66929325,1.01985683 9.52563432,1.01985683 L2.16666667,1.01985683 Z"/>
    <path fill="#DFB940" d="M3.21826175,6.62906941 L9.78173825,6.62906941 L9.78173825,6.62906941 C10.0633639,6.62906941 10.2916667,6.85737213 10.2916667,7.13899782 L10.2916667,9.95480254 L10.2916667,9.95480254 C10.2916667,10.1089588 10.2219294,10.2548407 10.1019596,10.3516467 L9.65991796,10.7083388 L7.04165405,12.82116 L6.82021419,12.9998064 L6.82021419,12.9998064 C6.63335644,13.1505536 6.36665468,13.1505399 6.17981253,12.9997732 L5.95838197,12.8210966 L2.8980404,10.3516467 L2.8980404,10.3516467 C2.7780706,10.2548407 2.70833333,10.1089588 2.70833333,9.95480254 L2.70833333,7.13899782 L2.70833333,7.13899782 C2.70833333,6.85737213 2.93663606,6.62906941 3.21826175,6.62906941 Z"/>
  </g>
</svg>
