<svg xmlns="http://www.w3.org/2000/svg" width="512" height="512" viewBox="0 0 128 128">
  <g fill="none" fill-rule="evenodd" transform="translate(15)">
    <path fill="#4080B3" fill-rule="nonzero" d="M16.5,8.15885465 C11.9436508,8.15885465 8.25,11.8116983 8.25,16.3177093 L8.25,83.9347029 C8.25,86.328255 9.31278542,88.6010748 11.1569005,90.151255 L44.1569005,117.891361 C47.2376858,120.481098 51.7623142,120.481098 54.8430995,117.891361 L87.8430995,90.151255 C89.6872146,88.6010748 90.75,86.328255 90.75,83.9347029 L90.75,26.1663181 C90.75,25.0843867 90.315403,24.0467684 89.5418155,23.2817274 L75.4581845,9.35369125 C74.684597,8.58865023 73.6353871,8.15885465 72.5413691,8.15885465 L16.5,8.15885465 Z M16.5,6.3407038e-15 L72.5413691,0 C75.8234231,3.98558525e-14 78.9710528,1.28938672 81.2918155,3.5845098 L95.3754464,17.5125459 C97.6962091,19.807669 99,22.9205239 99,26.1663181 L99,83.9347029 C99,88.7218072 96.8744292,93.2674467 93.1861989,96.3678072 L60.1861989,124.107913 C54.0246283,129.287386 44.9753717,129.287386 38.8138011,124.107913 L5.81380107,96.3678072 C2.12557084,93.2674467 0,88.7218072 0,83.9347029 L7.32747196e-15,16.3177093 C1.00752739e-14,7.3056873 7.38730163,9.05814829e-15 16.5,6.3407038e-15 Z"/>
    <path fill="#D9E6F0" d="M16.5,8.15885465 C11.9436508,8.15885465 8.25,11.8116983 8.25,16.3177093 L8.25,83.9347029 C8.25,86.328255 9.31278542,88.6010748 11.1569005,90.151255 L44.1569005,117.891361 C47.2376858,120.481098 51.7623142,120.481098 54.8430995,117.891361 L87.8430995,90.151255 C89.6872146,88.6010748 90.75,86.328255 90.75,83.9347029 L90.75,26.1663181 C90.75,25.0843867 90.315403,24.0467684 89.5418155,23.2817274 L75.4581845,9.35369125 C74.684597,8.58865023 73.6353871,8.15885465 72.5413691,8.15885465 L16.5,8.15885465 Z"/>
    <path fill="#DFB940" d="M24.7044273,53.0325552 L74.2955727,53.0325552 L74.2955727,53.0325552 C76.5485782,53.0325552 78.375,54.8589771 78.375,57.1119826 L78.375,79.6987048 L78.375,79.6987048 C78.375,80.897409 77.8477903,82.0354481 76.9334014,82.8105511 L73.5639906,85.6667103 L68.7503122,89.7505898 L57.7495492,99.0736685 L57.7495492,89.7505898 L53.6249039,89.7505898 L53.6249039,102.56928 L52.137783,103.829606 L52.137783,103.829606 C50.6158308,105.119451 48.384268,105.119334 46.8624504,103.82933 L45.3753704,102.568772 L45.3753704,89.7505898 L41.2499563,89.7505898 L41.2499563,99.0717694 L30.2533549,89.750245 L68.7503122,89.750245 L73.5639906,85.6646293 L25.4361825,85.666857 L22.0665986,82.8105511 L22.0665986,82.8105511 C21.1522097,82.0354481 20.625,80.897409 20.625,79.6987048 L20.625,67.3105509 L57.75,67.3105509 L57.75,53.0325552 L53.625,53.0325552 L53.625,63.2311236 L45.375,63.2311236 L45.375,53.0325552 L41.25,53.0325552 L41.25,63.2311236 L33,63.2311236 L33,53.0325552 L28.875,53.0325552 L28.875,63.2311236 L20.625,63.2311236 L20.625,57.1119826 L20.625,57.1119826 C20.625,54.8589771 22.4514218,53.0325552 24.7044273,53.0325552 Z"/>
  </g>
</svg>
